<svg height="512" viewBox="0 0 512 512" width="512" xmlns="http://www.w3.org/2000/svg"><g id="Flat"><path d="m128 72-8-24-72 24 8 40 16-8 8 24h32 32l8-40z" fill="#ffc7cc"/><path d="m77.333 64 34.667 32 16-24-8-24z" fill="#f2e368"/><path d="m112 136a8.00008 8.00008 0 0 1 -8-8v-28.49756l-42.14746-38.90527a7.99968 7.99968 0 1 1 10.85156-11.75684l44.72168 41.28125a8.00065 8.00065 0 0 1 2.57422 5.87842v32a8.00008 8.00008 0 0 1 -8 8z" fill="#808080"/><path d="m141.53425 39.92466-109.53425 40.07534-2.99947-4.49921a33.12584 33.12584 0 0 1 1.06169-38.25042 33.12584 33.12584 0 0 1 26.5007-13.25037h36.65431a81.26167 81.26167 0 0 1 48.317 15.92464z" fill="#ff6f35"/><path d="m288 96-104.61-22.41643a32.56628 32.56628 0 0 0 -14.72211.24946 32.56637 32.56637 0 0 0 -24.66789 31.59402v38.57295h144z" fill="#3ea7ff"/><path d="m144 112h40v48h-40z" fill="#3ea7ff"/><g fill="#808080"><path d="m112 496a96 96 0 1 1 96-96 96.10874 96.10874 0 0 1 -96 96zm0-176a80 80 0 1 0 80 80 80.09041 80.09041 0 0 0 -80-80z"/><path d="m400 496a96 96 0 1 1 96-96 96.10874 96.10874 0 0 1 -96 96zm0-176a80 80 0 1 0 80 80 80.09041 80.09041 0 0 0 -80-80z"/><path d="m208 192v32h-112a16 16 0 0 0 -16 16 16 16 0 0 0 16 16h32v32h-32a48 48 0 0 1 -48-48 48 48 0 0 1 48-48z"/></g><path d="m192 256h120l-8 32h-120z" fill="#eacf4d"/><path d="m176 320 72 88 24-24-80-96z" fill="#eacf4d"/><path d="m256 416-5.158-32h117.241l-73.907-110.483 27.304-16.686 102.52 159.169z" fill="#eacf4d"/><path d="m108.17642 383.88239 35.82358-23.88239 32-136h32l-32 152-51.94982 32.46864a14.63423 14.63423 0 0 1 -19.93255-4.2922 14.63424 14.63424 0 0 1 4.05879-20.29405z" fill="#f2e368"/><path d="m248 408 72-208h32l-72 208z" fill="#f2e368"/><circle cx="256.1" cy="392" fill="#e6e6e6" r="31.9"/><path d="m256.09961 431.8999a39.8999 39.8999 0 1 1 39.90039-39.8999 39.94454 39.94454 0 0 1 -39.90039 39.8999zm0-63.7998a23.8999 23.8999 0 1 0 23.90039 23.8999 23.92716 23.92716 0 0 0 -23.90039-23.8999z" fill="#ccc"/><path d="m356.83191 200h-60.16641a16.6655 16.6655 0 0 1 -16.6655-16.6655 16.6655 16.6655 0 0 1 15.2815-16.60793l59.95859-4.99657a19.16809 19.16809 0 0 1 20.75991 19.10187 19.16809 19.16809 0 0 1 -19.16809 19.16813z" fill="#bc8d5d"/><path d="m342.17993 176.03-33.43993 30.1-28.74 25.87 17.09009 34.18-13.09009 37.82-11.56006 33.39 7.56006 30.61-72 8 40-40v-128l10.8501-30.37 29.1499-81.63h23.47a45.90337 45.90337 0 0 1 30.71 80.03z" fill="#ffc7cc"/><path d="m342.17993 176.03-33.43993 30.1-49.88989-28.5 29.14989-81.63h23.47a45.90337 45.90337 0 0 1 30.71 80.03z" fill="#808080"/><path d="m272.44 337.39 7.56 30.61-72 8 40-40v-32h36z" fill="#e6e6e6"/><path d="m280 368-72 8 40-40 24.44 1.39z" fill="#808080"/><path d="m184 160v32h-72v12a20 20 0 0 1 -20 20 20 20 0 0 1 -20-20v-9.57783a34.42214 34.42214 0 0 1 15.32819-28.641 34.42215 34.42215 0 0 1 19.094-5.78117z" fill="#ffc7cc"/><path d="m112 176a16 16 0 0 1 16 16 0 0 0 0 1 0 0h-16a0 0 0 0 1 0 0v-16a0 0 0 0 1 0 0z" fill="#fe99a0"/><path d="m208.662 371.951h72.443v16h-72.443z" fill="#4d4d4d" transform="matrix(.994 -.11 .11 .994 -40.475 29.378)"/><path d="m184 112a14 14 0 0 1 14 14v18a0 0 0 0 1 0 0h-14a0 0 0 0 1 0 0v-32a0 0 0 0 1 0 0z" fill="#2b7cd4"/></g></svg>