<svg height="480pt" viewBox="0 -48 480 480" width="480pt" xmlns="http://www.w3.org/2000/svg"><path d="m320 136c0-22.089844-17.910156-40-40-40s-40 17.910156-40 40c0-22.089844-17.910156-40-40-40s-40 17.910156-40 40c0 48 80 88 80 88s80-40 80-88zm0 0" fill="#ea348b"/><path d="m440 8h-400c-17.671875 0-32 14.328125-32 32v240c0 17.671875 14.328125 32 32 32h304l32 64 32-64h32c17.671875 0 32-14.328125 32-32v-240c0-17.671875-14.328125-32-32-32zm-200 216s-80-40-80-88c0-22.089844 17.910156-40 40-40s40 17.910156 40 40c0-22.089844 17.910156-40 40-40s40 17.910156 40 40c0 48-80 88-80 88zm0 0" fill="#00d7df"/><g fill="#231f20"><path d="m440 64h-160c-4.417969 0-8 3.582031-8 8s3.582031 8 8 8h160c4.417969 0 8-3.582031 8-8s-3.582031-8-8-8zm0 0"/><path d="m440 104h-96c-4.417969 0-8 3.582031-8 8s3.582031 8 8 8h96c4.417969 0 8-3.582031 8-8s-3.582031-8-8-8zm0 0"/><path d="m440 144h-88c-4.417969 0-8 3.582031-8 8s3.582031 8 8 8h88c4.417969 0 8-3.582031 8-8s-3.582031-8-8-8zm0 0"/><path d="m440 184h-112c-4.417969 0-8 3.582031-8 8s3.582031 8 8 8h112c4.417969 0 8-3.582031 8-8s-3.582031-8-8-8zm0 0"/><path d="m440 224h-152c-4.417969 0-8 3.582031-8 8s3.582031 8 8 8h152c4.417969 0 8-3.582031 8-8s-3.582031-8-8-8zm0 0"/><path d="m440 264h-168c-4.417969 0-8 3.582031-8 8s3.582031 8 8 8h168c4.417969 0 8-3.582031 8-8s-3.582031-8-8-8zm0 0"/><path d="m40 80h160c4.417969 0 8-3.582031 8-8s-3.582031-8-8-8h-160c-4.417969 0-8 3.582031-8 8s3.582031 8 8 8zm0 0"/><path d="m40 120h96c4.417969 0 8-3.582031 8-8s-3.582031-8-8-8h-96c-4.417969 0-8 3.582031-8 8s3.582031 8 8 8zm0 0"/><path d="m40 160h88c4.417969 0 8-3.582031 8-8s-3.582031-8-8-8h-88c-4.417969 0-8 3.582031-8 8s3.582031 8 8 8zm0 0"/><path d="m40 200h112c4.417969 0 8-3.582031 8-8s-3.582031-8-8-8h-112c-4.417969 0-8 3.582031-8 8s3.582031 8 8 8zm0 0"/><path d="m40 240h152c4.417969 0 8-3.582031 8-8s-3.582031-8-8-8h-152c-4.417969 0-8 3.582031-8 8s3.582031 8 8 8zm0 0"/><path d="m208 264h-168c-4.417969 0-8 3.582031-8 8s3.582031 8 8 8h168c4.417969 0 8-3.582031 8-8s-3.582031-8-8-8zm0 0"/><path d="m440 0h-400c-22.082031.0273438-39.9726562 17.917969-40 40v240c.0273438 22.082031 17.917969 39.972656 40 40h299.054688l29.785156 59.574219c1.351562 2.71875 4.125 4.433593 7.160156 4.433593s5.808594-1.714843 7.160156-4.433593l29.785156-59.574219h27.054688c22.082031-.027344 39.972656-17.917969 40-40v-240c-.027344-22.082031-17.917969-39.9726562-40-40zm24 280c0 13.253906-10.746094 24-24 24h-32c-3.046875-.015625-5.839844 1.699219-7.199219 4.425781l-24.800781 49.6875-24.800781-49.6875c-1.359375-2.726562-4.152344-4.441406-7.199219-4.425781h-304c-13.253906 0-24-10.746094-24-24v-240c0-13.253906 10.746094-24 24-24h400c13.253906 0 24 10.746094 24 24zm0 0"/><path d="m243.574219 231.199219c3.449219-1.765625 84.425781-42.855469 84.425781-95.199219-.023438-21.164062-13.902344-39.8125-34.167969-45.910156s-42.132812 1.792968-53.832031 19.429687c-11.699219-17.636719-33.566406-25.527343-53.832031-19.429687s-34.144531 24.746094-34.167969 45.910156c0 52.34375 80.976562 93.433594 84.425781 95.199219.109375.058593.238281 0 .351563.082031 1.011718.464844 2.109375.710938 3.222656.71875 1.105469-.023438 2.199219-.28125 3.199219-.753906.144531-.046875.265625-.046875.375-.046875zm-75.574219-95.199219c0-17.671875 14.328125-32 32-32s32 14.328125 32 32c0 4.417969 3.582031 8 8 8s8-3.582031 8-8c0-17.671875 14.328125-32 32-32s32 14.328125 32 32c0 33.425781-49 66.640625-72 78.976562-23.015625-12.320312-72-45.488281-72-78.976562zm0 0"/></g></svg>